<svg width="187" height="187" viewBox="0 0 187 187" fill="none" xmlns="http://www.w3.org/2000/svg">
<g opacity="0.3">
<path opacity="0.3" d="M145.045 177.401C153.654 173.51 160.861 167.069 165.692 158.949C170.523 150.829 172.744 141.422 172.056 131.999C171.586 125.303 173.354 118.639 177.083 113.057C182.924 104.295 186.218 94.0842 186.602 83.561C186.985 73.0377 184.441 62.6145 179.254 53.4506C174.066 44.2867 166.438 36.7415 157.218 31.6543C147.999 26.567 137.548 24.1371 127.03 24.6349C122.396 24.806 117.779 23.9778 113.494 22.2066C109.208 20.4353 105.354 17.7624 102.193 14.3695C85.2931 -3.42998 54.0463 -5.79218 33.048 20.9117C30.6141 24.3068 29.0504 28.2472 28.4943 32.3874C27.1014 40.1052 22.8924 47.0308 16.6833 51.8217C11.5127 55.8912 7.32724 61.0753 4.43892 66.9874C1.55059 72.8996 0.0338932 79.3875 0.00187054 85.9674C-0.0796375 99.7622 2.47018 112.331 14.0305 123.892C30.269 140.13 26.106 160.255 44.7882 176.18C58.4277 187.806 77.9328 190.175 92.8349 182.39C99.6181 178.943 107.435 178.121 114.787 180.083C124.885 182.649 135.556 181.702 145.045 177.396V177.401Z" fill="#FFCBCB"/>
<path opacity="0.51" d="M79.3907 33.9253C79.0746 33.9255 78.7661 33.8283 78.5073 33.6469C78.2484 33.4655 78.0518 33.2088 77.944 32.9116C77.8363 32.6145 77.8227 32.2913 77.9052 31.9862C77.9877 31.6811 78.1621 31.4088 78.4049 31.2063L96.8595 15.8275C97.0139 15.6924 97.1937 15.5897 97.3883 15.5251C97.583 15.4606 97.7885 15.4357 97.993 15.4518C98.1974 15.4679 98.3966 15.5248 98.5787 15.619C98.7608 15.7132 98.9223 15.8429 99.0536 16.0004C99.1848 16.1579 99.2833 16.3401 99.3431 16.5363C99.4029 16.7324 99.4229 16.9386 99.4019 17.1425C99.3809 17.3465 99.3193 17.5443 99.2207 17.7241C99.1222 17.9039 98.9887 18.0622 98.828 18.1897L80.3734 33.5685C80.0971 33.7989 79.7488 33.9252 79.3891 33.9253H79.3907Z" fill="#6D6DAA"/>
<path opacity="0.51" d="M87.08 40.0768C86.7944 40.0768 86.5144 39.9973 86.2715 39.8471C86.0285 39.697 85.8322 39.4821 85.7045 39.2267C85.5767 38.9712 85.5227 38.6853 85.5483 38.4008C85.574 38.1164 85.6783 37.8447 85.8497 37.6162L99.6907 19.1615C99.8118 19 99.9637 18.8639 100.137 18.761C100.311 18.6581 100.504 18.5904 100.704 18.5618C100.903 18.5333 101.107 18.5444 101.303 18.5945C101.498 18.6446 101.682 18.7328 101.844 18.854C102.005 18.9751 102.141 19.127 102.244 19.3007C102.347 19.4745 102.415 19.6669 102.443 19.8668C102.472 20.0667 102.461 20.2703 102.411 20.4659C102.361 20.6616 102.272 20.8454 102.151 21.007L88.3103 39.4617C88.1671 39.6527 87.9813 39.8077 87.7678 39.9144C87.5542 40.0212 87.3188 40.0768 87.08 40.0768Z" fill="#6D6DAA"/>
<path opacity="0.51" d="M100.921 24.6979C105.168 24.6979 108.61 21.2553 108.61 17.0085C108.61 12.7617 105.168 9.31906 100.921 9.31906C96.6742 9.31906 93.2316 12.7617 93.2316 17.0085C93.2316 21.2553 96.6742 24.6979 100.921 24.6979Z" fill="#C7E9FF"/>
<path opacity="0.51" d="M100.921 26.2358C99.0959 26.2358 97.3119 25.6946 95.7945 24.6807C94.2771 23.6668 93.0944 22.2257 92.396 20.5396C91.6976 18.8536 91.5149 16.9983 91.8709 15.2083C92.2269 13.4184 93.1058 11.7742 94.3962 10.4838C95.6867 9.19332 97.3308 8.3145 99.1208 7.95846C100.911 7.60242 102.766 7.78516 104.452 8.48355C106.138 9.18195 107.579 10.3646 108.593 11.8821C109.607 13.3995 110.148 15.1835 110.148 17.0085C110.148 19.4557 109.176 21.8027 107.446 23.5332C105.715 25.2636 103.368 26.2358 100.921 26.2358ZM100.921 10.8569C99.7043 10.8569 98.5149 11.2177 97.5033 11.8937C96.4917 12.5696 95.7032 13.5303 95.2376 14.6544C94.772 15.7784 94.6502 17.0153 94.8876 18.2086C95.1249 19.4019 95.7108 20.498 96.5711 21.3583C97.4314 22.2186 98.5275 22.8045 99.7208 23.0418C100.914 23.2792 102.151 23.1574 103.275 22.6918C104.399 22.2262 105.36 21.4377 106.036 20.4261C106.712 19.4145 107.072 18.2251 107.072 17.0085C107.072 15.377 106.424 13.8123 105.271 12.6587C104.117 11.505 102.552 10.8569 100.921 10.8569Z" fill="#6D6DAA"/>
<path opacity="0.51" d="M68.6255 30.8495C68.2948 30.8499 67.9728 30.7437 67.7072 30.5466C67.4416 30.3496 67.2466 30.0722 67.1512 29.7556C67.0557 29.4389 67.0648 29.1 67.1772 28.789C67.2896 28.478 67.4992 28.2115 67.775 28.029L94.748 10.1895C94.9162 10.0676 95.1073 9.9811 95.3098 9.93509C95.5123 9.88909 95.722 9.88457 95.9263 9.92182C96.1306 9.95907 96.3253 10.0373 96.4985 10.1518C96.6718 10.2663 96.82 10.4147 96.9343 10.5881C97.0487 10.7615 97.1267 10.9562 97.1637 11.1605C97.2008 11.3649 97.196 11.5746 97.1498 11.777C97.1036 11.9795 97.0168 12.1705 96.8948 12.3385C96.7728 12.5066 96.618 12.6481 96.4397 12.7547L69.4667 30.5942C69.2154 30.7605 68.9207 30.8492 68.6193 30.8495H68.6255Z" fill="#6D6DAA"/>
<path opacity="0.51" d="M90.1559 49.3041C89.8799 49.304 89.6091 49.2295 89.3718 49.0886C89.1345 48.9477 88.9394 48.7456 88.8072 48.5034C88.6749 48.2611 88.6102 47.9878 88.62 47.712C88.6297 47.4362 88.7135 47.1681 88.8625 46.9358L105.124 21.5499C105.233 21.3798 105.374 21.2329 105.54 21.1175C105.706 21.0021 105.893 20.9205 106.09 20.8773C106.287 20.8341 106.491 20.8302 106.69 20.8657C106.889 20.9013 107.079 20.9757 107.249 21.0847C107.419 21.1936 107.566 21.335 107.681 21.5008C107.797 21.6665 107.878 21.8533 107.921 22.0506C107.965 22.2479 107.968 22.4518 107.933 22.6506C107.897 22.8494 107.823 23.0392 107.714 23.2093L91.4508 48.5967C91.3114 48.814 91.1196 48.9926 90.893 49.1162C90.6665 49.2399 90.4124 49.3045 90.1543 49.3041H90.1559Z" fill="#6D6DAA"/>
<path opacity="0.51" d="M20.182 91.596C26.1274 91.596 30.9472 86.7762 30.9472 80.8308C30.9472 74.8853 26.1274 70.0656 20.182 70.0656C14.2365 70.0656 9.41675 74.8853 9.41675 80.8308C9.41675 86.7762 14.2365 91.596 20.182 91.596Z" fill="#96D7FF"/>
<path opacity="0.51" d="M20.182 76.5247C22.4779 76.5302 24.7115 77.2721 26.5546 78.6412C28.3976 80.0103 29.7529 81.9346 30.4212 84.1311C30.7694 83.0656 30.9469 81.9517 30.9472 80.8308C30.9472 77.9757 29.813 75.2375 27.7941 73.2186C25.7752 71.1997 23.0371 70.0656 20.182 70.0656C17.3268 70.0656 14.5887 71.1997 12.5698 73.2186C10.5509 75.2375 9.41675 77.9757 9.41675 80.8308C9.41701 81.9517 9.59452 83.0656 9.94271 84.1311C10.611 81.9346 11.9663 80.0103 13.8094 78.6412C15.6524 77.2721 17.886 76.5302 20.182 76.5247Z" fill="white"/>
<path opacity="0.51" d="M20.1819 93.1339C17.7486 93.1339 15.3699 92.4123 13.3467 91.0605C11.3234 89.7086 9.7465 87.7871 8.81531 85.539C7.88411 83.2909 7.64047 80.8172 8.11519 78.4306C8.58991 76.044 9.76166 73.8518 11.4823 72.1312C13.2029 70.4106 15.3951 69.2388 17.7817 68.7641C20.1682 68.2894 22.642 68.533 24.8901 69.4642C27.1382 70.3954 29.0597 71.9723 30.4115 73.9956C31.7634 76.0188 32.485 78.3975 32.485 80.8308C32.485 84.0938 31.1888 87.2231 28.8815 89.5304C26.5742 91.8377 23.4449 93.1339 20.1819 93.1339ZM20.1819 71.6035C18.3569 71.6035 16.5729 72.1447 15.0555 73.1586C13.538 74.1725 12.3553 75.6136 11.657 77.2997C10.9586 78.9857 10.7758 80.8411 11.1319 82.631C11.4879 84.4209 12.3667 86.0651 13.6572 87.3555C14.9476 88.646 16.5918 89.5248 18.3817 89.8808C20.1717 90.2369 22.027 90.0541 23.713 89.3558C25.3991 88.6574 26.8402 87.4747 27.8541 85.9572C28.868 84.4398 29.4092 82.6558 29.4092 80.8308C29.4092 78.3836 28.4371 76.0366 26.7066 74.3061C24.9761 72.5757 22.6291 71.6035 20.1819 71.6035Z" fill="#6D6DAA"/>
<path opacity="0.51" d="M37.2311 114.317L42.3061 119.384L35.7116 122.211L34.4121 120.913L37.2311 114.317Z" fill="#C7E9FF"/>
<path opacity="0.51" d="M32.499 119.124L37.5233 124.292C37.8033 124.579 37.9586 124.966 37.9558 125.367C37.9529 125.769 37.792 126.153 37.5079 126.437L33.0742 130.871C32.931 131.014 32.7609 131.127 32.5735 131.204C32.3862 131.281 32.1854 131.32 31.9829 131.319C31.7804 131.317 31.5802 131.275 31.3939 131.196C31.2077 131.116 31.0391 131.001 30.898 130.855L25.8722 125.686C25.5922 125.399 25.4369 125.012 25.4397 124.611C25.4426 124.209 25.6035 123.825 25.8876 123.541L30.3213 119.107C30.4645 118.964 30.6346 118.851 30.822 118.774C31.0093 118.697 31.2101 118.658 31.4126 118.659C31.6151 118.661 31.8153 118.703 32.0016 118.782C32.1878 118.862 32.3564 118.977 32.4974 119.123L32.499 119.124Z" fill="#C7E9FF"/>
<path opacity="0.51" d="M8.12568 118.144L14.7211 124.739L31.6374 107.823L25.0421 101.227L8.12568 118.144Z" fill="#C9C1F5"/>
<path opacity="0.51" d="M32.1997 142.218L38.795 148.813L55.7114 131.897L49.116 125.301L32.1997 142.218Z" fill="#C9C1F5"/>
<path opacity="0.51" d="M31.993 132.854H31.9699C31.564 132.854 31.1623 132.771 30.7886 132.613C30.4149 132.454 30.0767 132.223 29.7938 131.932L24.7711 126.764C24.2116 126.185 23.9014 125.41 23.9072 124.605C23.9129 123.8 24.2341 123.029 24.8018 122.458L29.2356 118.025C29.5199 117.738 29.8585 117.511 30.2316 117.356C30.6047 117.202 31.0048 117.123 31.4086 117.125H31.4317C31.8376 117.126 32.2393 117.208 32.613 117.366C32.9868 117.525 33.325 117.756 33.6078 118.048L38.6305 123.215C39.19 123.794 39.5001 124.569 39.4944 125.374C39.4886 126.179 39.1674 126.95 38.5997 127.521L34.166 131.955C33.8822 132.24 33.5445 132.467 33.1726 132.621C32.8006 132.775 32.4018 132.854 31.9991 132.853L31.993 132.854ZM31.4086 120.201L26.9825 124.627L32.0068 129.78L36.4267 125.346L31.4086 120.201ZM32.5036 119.124L31.3994 120.201L32.5036 119.124Z" fill="#6D6DAA"/>
<path opacity="0.51" d="M14.721 126.278C14.3132 126.278 13.9221 126.116 13.6337 125.828L7.03926 119.232C6.75095 118.943 6.58899 118.552 6.58899 118.145C6.58899 117.737 6.75095 117.346 7.03926 117.057L23.956 100.141C24.2444 99.8522 24.6355 99.6902 25.0433 99.6902C25.4511 99.6902 25.8422 99.8522 26.1306 100.141L32.7266 106.737C33.0149 107.025 33.1769 107.416 33.1769 107.824C33.1769 108.232 33.0149 108.623 32.7266 108.911L15.8098 125.828C15.5215 126.116 15.1304 126.278 14.7225 126.278H14.721ZM10.3011 118.145L14.7225 122.566L29.4647 107.824L25.0433 103.402L10.3011 118.145Z" fill="#6D6DAA"/>
<path opacity="0.51" d="M35.7038 123.749C35.5016 123.749 35.3014 123.709 35.1145 123.632C34.9277 123.554 34.7579 123.441 34.615 123.298L33.317 121.999C33.1003 121.781 32.9535 121.504 32.8957 121.202C32.8379 120.901 32.8716 120.589 32.9925 120.307L35.8192 113.712C35.9182 113.481 36.0723 113.278 36.268 113.121C36.4637 112.963 36.6951 112.856 36.9418 112.808C37.1885 112.761 37.4431 112.775 37.6833 112.848C37.9236 112.922 38.1421 113.053 38.3198 113.231L43.3856 118.298C43.5632 118.476 43.6946 118.695 43.7682 118.935C43.8419 119.175 43.8556 119.43 43.8081 119.676C43.7606 119.923 43.6534 120.154 43.4958 120.35C43.3382 120.546 43.1351 120.7 42.9042 120.799L36.3097 123.626C36.1182 123.707 35.912 123.749 35.7038 123.749ZM37.7507 117.011L36.3666 120.258L39.6116 118.874L37.7507 117.011Z" fill="#6D6DAA"/>
<path opacity="0.51" d="M47.2488 141.893C46.8409 141.893 46.4498 141.73 46.1615 141.442L34.3305 129.609C34.0413 129.321 33.8787 128.929 33.8784 128.52C33.8781 128.112 34.0402 127.719 34.329 127.43C34.6177 127.141 35.0096 126.978 35.4182 126.978C35.8269 126.978 36.219 127.14 36.5082 127.429L48.3407 139.271C48.5557 139.486 48.7021 139.76 48.7614 140.058C48.8207 140.356 48.7903 140.665 48.6739 140.946C48.5575 141.227 48.3605 141.467 48.1076 141.636C47.8548 141.805 47.5575 141.896 47.2534 141.896L47.2488 141.893Z" fill="#6D6DAA"/>
<path opacity="0.51" d="M28.179 122.783C27.7721 122.783 27.3817 122.622 27.0932 122.335L16.1742 111.456C16.0273 111.314 15.9102 111.145 15.8296 110.957C15.749 110.77 15.7065 110.568 15.7048 110.364C15.703 110.159 15.7419 109.957 15.8192 109.768C15.8966 109.579 16.0108 109.407 16.1551 109.263C16.2995 109.118 16.4713 109.004 16.6603 108.927C16.8493 108.849 17.0518 108.811 17.256 108.812C17.4602 108.814 17.662 108.857 17.8496 108.937C18.0372 109.018 18.2069 109.135 18.3488 109.282L29.2678 120.161C29.4838 120.376 29.6311 120.65 29.691 120.948C29.751 121.247 29.7209 121.557 29.6046 121.838C29.4883 122.12 29.291 122.361 29.0378 122.53C28.7845 122.699 28.4867 122.789 28.182 122.789L28.179 122.783Z" fill="#6D6DAA"/>
<path opacity="0.51" d="M38.7903 150.351C38.3825 150.351 37.9914 150.189 37.7031 149.9L31.1086 143.306C30.8203 143.018 30.6583 142.627 30.6583 142.219C30.6583 141.811 30.8203 141.42 31.1086 141.131L48.0254 124.215C48.3138 123.926 48.7049 123.764 49.1126 123.764C49.5204 123.764 49.9115 123.926 50.1999 124.215L56.799 130.812C57.0873 131.101 57.2493 131.492 57.2493 131.9C57.2493 132.307 57.0873 132.698 56.799 132.987L39.8822 149.904C39.5939 150.192 39.2028 150.354 38.795 150.354L38.7903 150.351ZM34.3705 142.219L38.7903 146.639L53.5356 131.889L49.1157 127.469L34.3705 142.219Z" fill="#6D6DAA"/>
<path opacity="0.51" d="M50.2507 118.548C50.1474 118.548 50.0444 118.538 49.9431 118.518C49.7449 118.479 49.5565 118.401 49.3885 118.289C49.2205 118.177 49.0763 118.032 48.964 117.864C48.8518 117.696 48.7737 117.508 48.7343 117.31C48.6949 117.112 48.6949 116.908 48.7343 116.71C48.9841 115.465 48.9224 114.177 48.5549 112.962C48.1873 111.747 47.5252 110.641 46.6273 109.743C45.7295 108.845 44.6238 108.183 43.4084 107.816C42.193 107.448 40.9057 107.386 39.6608 107.636C39.4626 107.676 39.2587 107.676 39.0605 107.636C38.8624 107.597 38.6739 107.519 38.5059 107.407C38.3379 107.295 38.1936 107.151 38.0813 106.983C37.969 106.815 37.8909 106.626 37.8514 106.428C37.812 106.23 37.8119 106.026 37.8512 105.828C37.8906 105.63 37.9686 105.441 38.0807 105.273C38.1929 105.105 38.3371 104.961 38.505 104.849C38.6729 104.736 38.8613 104.658 39.0595 104.619C40.8005 104.271 42.6005 104.358 44.2998 104.872C45.9991 105.387 47.5451 106.313 48.8006 107.568C50.056 108.824 50.9821 110.37 51.4967 112.069C52.0112 113.768 52.0982 115.568 51.7501 117.31C51.6792 117.657 51.4904 117.969 51.2158 118.193C50.9412 118.417 50.5975 118.54 50.243 118.54L50.2507 118.548Z" fill="#6D6DAA"/>
<path opacity="0.51" d="M56.8453 119.867C56.7421 119.867 56.6391 119.857 56.5377 119.838C56.3396 119.798 56.1511 119.72 55.9831 119.608C55.8152 119.496 55.6709 119.352 55.5587 119.184C55.4464 119.016 55.3683 118.828 55.3289 118.629C55.2895 118.431 55.2895 118.227 55.3289 118.029C55.7959 115.699 55.6804 113.29 54.9925 111.016C54.3046 108.741 53.0657 106.671 51.3858 104.991C49.7059 103.31 47.6369 102.07 45.3627 101.381C43.0885 100.692 40.6793 100.576 38.3491 101.042C38.151 101.081 37.947 101.081 37.7489 101.042C37.5507 101.003 37.3623 100.925 37.1943 100.812C37.0263 100.7 36.882 100.556 36.7697 100.388C36.6574 100.22 36.5793 100.032 36.5398 99.8337C36.5003 99.6356 36.5002 99.4316 36.5396 99.2335C36.5789 99.0353 36.6569 98.8469 36.7691 98.6789C36.8813 98.5109 37.0254 98.3666 37.1934 98.2543C37.3613 98.142 37.5497 98.0639 37.7478 98.0244C40.5751 97.4578 43.4986 97.5983 46.2586 98.4334C49.0186 99.2685 51.5296 100.772 53.5686 102.811C55.6075 104.85 57.1114 107.361 57.9465 110.121C58.7815 112.881 58.9221 115.805 58.3555 118.632C58.2854 118.981 58.0966 119.294 57.8213 119.52C57.5459 119.745 57.201 119.868 56.8453 119.867Z" fill="#6D6DAA"/>
<path opacity="0.51" d="M63.4444 121.187C63.3411 121.187 63.2381 121.177 63.1368 121.157C62.9386 121.118 62.7502 121.04 62.5822 120.928C62.4142 120.816 62.27 120.671 62.1577 120.503C62.0455 120.335 61.9674 120.147 61.928 119.949C61.8886 119.751 61.8886 119.547 61.928 119.349C62.6134 115.932 62.4438 112.399 61.4342 109.064C60.4245 105.728 58.6062 102.694 56.1409 100.231C55.8524 99.9421 55.6905 99.5501 55.6909 99.1416C55.6914 98.7331 55.8541 98.3414 56.1432 98.0529C56.4324 97.7643 56.8244 97.6024 57.2329 97.6028C57.6415 97.6033 58.0331 97.766 58.3217 98.0552C61.1453 100.876 63.228 104.35 64.3847 108.17C65.5414 111.989 65.7361 116.036 64.9515 119.949C64.8806 120.296 64.6918 120.608 64.4172 120.832C64.1426 121.056 63.7989 121.179 63.4444 121.179V121.187Z" fill="#6D6DAA"/>
<path opacity="0.51" d="M96.3073 179.256C113.719 179.256 127.834 165.141 127.834 147.729C127.834 130.317 113.719 116.202 96.3073 116.202C78.8956 116.202 64.7806 130.317 64.7806 147.729C64.7806 165.141 78.8956 179.256 96.3073 179.256Z" fill="#C7E9FF"/>
<path opacity="0.51" d="M96.3074 180.793C89.7678 180.793 83.3751 178.854 77.9377 175.221C72.5003 171.588 68.2623 166.424 65.7597 160.382C63.2571 154.34 62.6023 147.692 63.8781 141.278C65.1539 134.864 68.303 128.973 72.9272 124.349C77.5514 119.725 83.4429 116.575 89.8568 115.3C96.2707 114.024 102.919 114.679 108.961 117.181C115.002 119.684 120.166 123.922 123.8 129.359C127.433 134.797 129.372 141.189 129.372 147.729C129.372 156.498 125.888 164.908 119.688 171.109C113.487 177.31 105.077 180.793 96.3074 180.793ZM96.3074 117.74C90.3762 117.74 84.5781 119.499 79.6465 122.794C74.7149 126.089 70.8711 130.773 68.6013 136.253C66.3316 141.732 65.7377 147.762 66.8948 153.579C68.0519 159.397 70.9081 164.74 75.1021 168.934C79.2961 173.128 84.6396 175.984 90.4569 177.141C96.2741 178.299 102.304 177.705 107.784 175.435C113.263 173.165 117.947 169.321 121.242 164.39C124.537 159.458 126.296 153.66 126.296 147.729C126.296 139.775 123.137 132.148 117.513 126.524C111.889 120.9 104.261 117.74 96.3074 117.74Z" fill="#6D6DAA"/>
<path opacity="0.51" d="M96.3075 180.793C86.2513 180.793 78.3757 166.27 78.3757 147.729C78.3757 129.188 86.2513 114.664 96.3075 114.664C106.364 114.664 114.239 129.188 114.239 147.729C114.239 166.27 106.364 180.793 96.3075 180.793ZM96.3075 117.74C88.2551 117.74 81.4515 131.473 81.4515 147.729C81.4515 163.984 88.2551 177.718 96.3075 177.718C104.36 177.718 111.163 163.984 111.163 147.729C111.163 131.473 104.36 117.74 96.3075 117.74Z" fill="#6D6DAA"/>
<path opacity="0.51" d="M96.3074 180.793C95.8995 180.793 95.5084 180.631 95.22 180.343C94.9316 180.055 94.7695 179.663 94.7695 179.256V116.202C94.7695 115.794 94.9316 115.403 95.22 115.115C95.5084 114.826 95.8995 114.664 96.3074 114.664C96.7153 114.664 97.1065 114.826 97.3949 115.115C97.6833 115.403 97.8453 115.794 97.8453 116.202V179.256C97.8453 179.663 97.6833 180.055 97.3949 180.343C97.1065 180.631 96.7153 180.793 96.3074 180.793Z" fill="#6D6DAA"/>
<path opacity="0.51" d="M127.834 149.267H64.7807C64.3728 149.267 63.9816 149.105 63.6932 148.816C63.4048 148.528 63.2428 148.137 63.2428 147.729C63.2428 147.321 63.4048 146.93 63.6932 146.641C63.9816 146.353 64.3728 146.191 64.7807 146.191H127.834C128.242 146.191 128.633 146.353 128.922 146.641C129.21 146.93 129.372 147.321 129.372 147.729C129.372 148.137 129.21 148.528 128.922 148.816C128.633 149.105 128.242 149.267 127.834 149.267Z" fill="#6D6DAA"/>
<path opacity="0.51" d="M96.3075 135.395C86.445 135.395 77.1977 133.165 70.9323 129.279C70.5856 129.064 70.3386 128.72 70.2456 128.322C70.1526 127.925 70.2212 127.507 70.4364 127.16C70.6515 126.814 70.9956 126.567 71.3928 126.474C71.7901 126.381 72.2081 126.449 72.5548 126.664C78.3465 130.259 87.0032 132.319 96.3075 132.319C105.612 132.319 114.268 130.259 120.057 126.66C120.229 126.553 120.42 126.481 120.619 126.448C120.819 126.415 121.023 126.422 121.219 126.468C121.416 126.514 121.602 126.598 121.766 126.716C121.931 126.834 122.07 126.983 122.177 127.154C122.284 127.326 122.356 127.517 122.389 127.716C122.421 127.916 122.415 128.12 122.369 128.317C122.323 128.514 122.239 128.699 122.121 128.864C122.003 129.028 121.854 129.168 121.683 129.274C115.417 133.165 106.17 135.395 96.3075 135.395Z" fill="#6D6DAA"/>
<path opacity="0.51" d="M120.867 169.024C120.582 169.024 120.301 168.944 120.059 168.793C114.27 165.199 105.613 163.139 96.3089 163.139C87.0047 163.139 78.3479 165.199 72.5593 168.792C72.3881 168.907 72.1955 168.986 71.993 169.025C71.7905 169.063 71.5823 169.061 71.3807 169.018C71.1791 168.975 70.9883 168.891 70.8196 168.773C70.6509 168.654 70.5077 168.503 70.3986 168.328C70.2895 168.153 70.2166 167.958 70.1844 167.754C70.1522 167.551 70.1613 167.343 70.211 167.143C70.2608 166.943 70.3503 166.755 70.4742 166.59C70.5981 166.425 70.7539 166.287 70.9323 166.184C77.1945 162.297 86.4418 160.067 96.3074 160.067C106.173 160.067 115.417 162.293 121.683 166.184C121.967 166.36 122.186 166.624 122.307 166.936C122.427 167.248 122.443 167.591 122.351 167.913C122.259 168.235 122.065 168.518 121.798 168.719C121.531 168.92 121.205 169.029 120.871 169.029L120.867 169.024Z" fill="#6D6DAA"/>
</g>
<path opacity="0.52" d="M181.068 22.2727C181.34 23.166 181.828 23.9787 182.488 24.639C183.148 25.2993 183.961 25.787 184.854 26.059C186.747 26.6895 186.747 27.3205 184.854 27.9521C183.961 28.2241 183.148 28.7117 182.488 29.372C181.828 30.0324 181.34 30.845 181.068 31.7384C180.437 33.631 179.806 33.631 179.175 31.7384C178.903 30.845 178.415 30.0324 177.755 29.372C177.094 28.7117 176.282 28.2241 175.388 27.9521C173.496 27.3216 173.496 26.6905 175.388 26.059C176.282 25.787 177.094 25.2993 177.755 24.639C178.415 23.9787 178.903 23.166 179.175 22.2727C179.806 20.3801 180.437 20.3801 181.068 22.2727Z" fill="#FF9797"/>
<path opacity="0.52" d="M141.083 166.834C141.355 167.727 141.843 168.54 142.503 169.2C143.163 169.861 143.976 170.348 144.869 170.62C146.762 171.251 146.762 171.882 144.869 172.514C143.976 172.786 143.163 173.273 142.503 173.934C141.843 174.594 141.355 175.407 141.083 176.3C140.452 178.192 139.821 178.192 139.19 176.3C138.918 175.407 138.43 174.594 137.77 173.934C137.11 173.273 136.297 172.786 135.403 172.514C133.511 171.883 133.511 171.252 135.403 170.62C136.297 170.348 137.11 169.861 137.77 169.2C138.43 168.54 138.918 167.727 139.19 166.834C139.821 164.942 140.452 164.942 141.083 166.834Z" fill="#FF9797"/>
<path opacity="0.52" d="M34.9686 157.607C35.2406 158.5 35.7283 159.313 36.3886 159.973C37.0489 160.633 37.8616 161.121 38.7549 161.393C40.6475 162.024 40.6475 162.655 38.7549 163.286C37.8616 163.558 37.0489 164.046 36.3886 164.706C35.7283 165.366 35.2406 166.179 34.9686 167.072C34.3381 168.965 33.7071 168.965 33.0755 167.072C32.8035 166.179 32.3159 165.366 31.6556 164.706C30.9952 164.046 30.1826 163.558 29.2892 163.286C27.3966 162.656 27.3966 162.025 29.2892 161.393C30.1826 161.121 30.9952 160.633 31.6556 159.973C32.3159 159.313 32.8035 158.5 33.0755 157.607C33.7071 155.714 34.3381 155.714 34.9686 157.607Z" fill="#FF9797"/>
<path opacity="0.52" d="M18.0519 43.8031C18.3239 44.6965 18.8115 45.5091 19.4718 46.1694C20.1321 46.8298 20.9448 47.3174 21.8382 47.5894C23.7308 48.2199 23.7308 48.851 21.8382 49.4825C20.9448 49.7545 20.1321 50.2422 19.4718 50.9025C18.8115 51.5628 18.3239 52.3755 18.0519 53.2688C17.4214 55.1614 16.7903 55.1614 16.1588 53.2688C15.8868 52.3755 15.3991 51.5628 14.7388 50.9025C14.0785 50.2422 13.2658 49.7545 12.3725 49.4825C10.4798 48.852 10.4798 48.2209 12.3725 47.5894C13.2658 47.3174 14.0785 46.8298 14.7388 46.1694C15.3991 45.5091 15.8868 44.6965 16.1588 43.8031C16.7903 41.9105 17.4214 41.9105 18.0519 43.8031Z" fill="#FF9797"/>
<path opacity="0.52" d="M172.314 79.885C172.722 81.2247 173.454 82.4434 174.444 83.4336C175.434 84.4238 176.653 85.1551 177.992 85.5629C180.831 86.5092 180.831 87.4555 177.992 88.4018C176.653 88.8096 175.434 89.5409 174.444 90.5311C173.454 91.5213 172.722 92.74 172.314 94.0797C171.368 96.9186 170.422 96.9186 169.476 94.0797C169.068 92.74 168.336 91.5213 167.346 90.5311C166.356 89.5409 165.137 88.8096 163.798 88.4018C160.959 87.4555 160.959 86.5092 163.798 85.5629C165.137 85.1551 166.356 84.4238 167.346 83.4336C168.336 82.4434 169.068 81.2247 169.476 79.885C170.422 77.045 171.368 77.045 172.314 79.885Z" fill="#FF9797"/>
<path d="M86.0851 37.8792L102.396 54.1916C102.967 54.7628 103.42 55.441 103.729 56.1874C104.039 56.9337 104.198 57.7337 104.198 58.5415C104.198 59.3494 104.039 60.1493 103.729 60.8957C103.42 61.6421 102.967 62.3202 102.396 62.8914L65.4236 99.8638C64.8523 100.435 64.1742 100.888 63.4278 101.197C62.6815 101.507 61.8815 101.666 61.0737 101.666C60.2658 101.666 59.4659 101.507 58.7195 101.197C57.9731 100.888 57.295 100.435 56.7238 99.8638L40.4114 83.553L86.0851 37.8792Z" fill="#939FC6"/>
<path d="M78.4727 38.9664L41.4993 75.9397C39.097 78.342 39.097 82.237 41.4993 84.6393L52.3738 95.5138C54.7762 97.9161 58.6711 97.9161 61.0734 95.5138L98.0468 58.5405C100.449 56.1381 100.449 52.2432 98.0468 49.8409L87.1723 38.9664C84.7699 36.564 80.875 36.564 78.4727 38.9664Z" fill="#CED8EE"/>
<path d="M61.0729 103.204C60.0625 103.207 59.0615 103.009 58.1281 102.623C57.1946 102.236 56.3472 101.668 55.6349 100.951L40.4098 85.726C38.9697 84.2829 38.1609 82.3275 38.1609 80.2888C38.1609 78.25 38.9697 76.2946 40.4098 74.8516L77.3914 37.8792C78.8349 36.4398 80.7902 35.6315 82.8286 35.6315C84.8671 35.6315 86.8224 36.4398 88.2658 37.8792L103.491 53.1043C104.933 54.5463 105.743 56.5022 105.743 58.5415C105.743 60.5808 104.933 62.5367 103.491 63.9787L66.5109 100.951C65.7986 101.668 64.9512 102.236 64.0177 102.623C63.0842 103.009 62.0833 103.207 61.0729 103.204ZM82.8217 38.7051C82.2157 38.7037 81.6154 38.8222 81.0554 39.0537C80.4953 39.2851 79.9866 39.625 79.5583 40.0538L42.586 77.0277C42.1575 77.4561 41.8175 77.9647 41.5856 78.5245C41.3537 79.0844 41.2344 79.6844 41.2344 80.2903C41.2344 80.8962 41.3537 81.4963 41.5856 82.0561C41.8175 82.6159 42.1575 83.1245 42.586 83.5529L57.811 98.778C58.6898 99.6176 59.8583 100.086 61.0737 100.086C62.289 100.086 63.4576 99.6176 64.3363 98.778L101.309 61.8026C101.737 61.3742 102.077 60.8655 102.309 60.3057C102.541 59.7459 102.66 59.1459 102.66 58.54C102.66 57.934 102.541 57.334 102.309 56.7742C102.077 56.2144 101.737 55.7058 101.309 55.2773L86.0836 40.0522C85.6554 39.624 85.1468 39.2845 84.587 39.0533C84.0272 38.8221 83.4273 38.7037 82.8217 38.7051Z" fill="#26404E"/>
<path d="M147.344 98.4136L151.693 102.763C152.264 103.334 152.717 104.012 153.026 104.758C153.336 105.505 153.495 106.305 153.495 107.113C153.495 107.92 153.336 108.72 153.026 109.467C152.717 110.213 152.264 110.891 151.693 111.463L114.72 148.436C114.149 149.008 113.471 149.461 112.725 149.77C111.978 150.079 111.178 150.238 110.371 150.238C109.563 150.238 108.763 150.079 108.016 149.77C107.27 149.461 106.592 149.008 106.021 148.436L101.672 144.087L147.344 98.4136Z" fill="#939FC6"/>
<path d="M127.769 87.5391L123.42 91.8898L134.293 102.764L127.769 109.282L116.895 98.4074L101.67 113.632L112.546 124.507L106.021 131.032L95.1462 120.158L90.7971 124.507C90.2258 125.078 89.7727 125.756 89.4635 126.503C89.1544 127.249 88.9952 128.049 88.9952 128.857C88.9952 129.665 89.1544 130.465 89.4635 131.211C89.7727 131.957 90.2258 132.635 90.7971 133.207L101.672 144.081C102.243 144.652 102.921 145.105 103.667 145.415C104.414 145.724 105.214 145.883 106.021 145.883C106.829 145.883 107.629 145.724 108.376 145.415C109.122 145.105 109.8 144.652 110.371 144.081L147.344 107.113C147.915 106.542 148.368 105.864 148.677 105.118C148.986 104.371 149.146 103.571 149.146 102.763C149.146 101.956 148.986 101.156 148.677 100.409C148.368 99.6629 147.915 98.9847 147.344 98.4135L136.469 87.5391C135.898 86.9678 135.22 86.5147 134.474 86.2055C133.727 85.8964 132.927 85.7372 132.119 85.7372C131.312 85.7372 130.512 85.8964 129.765 86.2055C129.019 86.5147 128.341 86.9678 127.769 87.5391Z" fill="#CED8EE"/>
<path opacity="0.2" d="M112.547 122.339L103.848 131.038L113.635 140.825L122.334 132.126L112.547 122.339Z" fill="#2C4B75"/>
<path opacity="0.2" d="M134.296 100.588L125.596 109.288L135.383 119.075L144.083 110.375L134.296 100.588Z" fill="#2C4B75"/>
<path d="M151.695 141.912L145.171 148.436L161.14 164.406L167.665 157.881L151.695 141.912Z" fill="#CED8EE"/>
<path opacity="0.2" d="M151.694 141.912L145.169 148.436L148.432 151.699L154.956 145.174L151.694 141.912Z" fill="#2C4B75"/>
<path d="M94.059 106.026L112.546 124.507C115.446 127.407 108.921 133.931 106.021 131.032L87.5414 112.551C87.1129 112.123 86.773 111.614 86.5411 111.054C86.3092 110.495 86.1898 109.895 86.1898 109.289C86.1898 108.683 86.3092 108.083 86.5411 107.523C86.773 106.963 87.1129 106.454 87.5414 106.026C87.9698 105.598 88.4785 105.258 89.0383 105.026C89.5981 104.794 90.1981 104.674 90.804 104.674C91.41 104.674 92.01 104.794 92.5698 105.026C93.1296 105.258 93.6382 105.598 94.0667 106.026H94.059Z" fill="#EEF6FF"/>
<path opacity="0.2" d="M87.5414 106.026C86.9704 106.604 86.5638 107.323 86.3634 108.11C87.142 107.899 87.9623 107.897 88.742 108.104C89.5216 108.31 90.2331 108.719 90.8048 109.288L111.459 129.949C111.459 129.949 114.381 126.348 112.546 124.511L94.059 106.026C93.6306 105.598 93.1219 105.258 92.5621 105.026C92.0023 104.794 91.4023 104.674 90.7964 104.674C90.1904 104.674 89.5904 104.794 89.0306 105.026C88.4708 105.258 87.9622 105.598 87.5337 106.026H87.5414Z" fill="#2C4B75"/>
<path d="M149.518 113.639L151.693 115.813C153.407 117.527 154.766 119.561 155.694 121.8C156.621 124.04 157.098 126.439 157.098 128.863C157.098 131.287 156.621 133.686 155.694 135.925C154.766 138.165 153.407 140.199 151.693 141.913L145.168 148.438C143.454 150.152 141.419 151.511 139.18 152.439C136.941 153.366 134.541 153.844 132.118 153.844C129.694 153.844 127.294 153.366 125.055 152.439C122.816 151.511 120.782 150.152 119.068 148.438L116.892 146.263L149.518 113.639Z" fill="#939FC6"/>
<path opacity="0.2" d="M149.52 113.638L116.897 146.262L120.159 149.524L152.782 116.901L149.52 113.638Z" fill="#2C4B75"/>
<path d="M101.672 115.176C101.367 115.176 101.07 115.086 100.817 114.917C100.565 114.748 100.367 114.508 100.251 114.227C100.135 113.946 100.104 113.637 100.164 113.339C100.223 113.04 100.369 112.766 100.584 112.551L115.809 97.3262C116.099 97.0461 116.488 96.8911 116.891 96.8946C117.294 96.8981 117.68 97.0598 117.965 97.345C118.25 97.6301 118.412 98.0158 118.416 98.4191C118.419 98.8223 118.264 99.2108 117.984 99.5008L102.759 114.726C102.471 115.014 102.079 115.176 101.672 115.176Z" fill="#26404E"/>
<path d="M110.371 151.774C109.362 151.775 108.361 151.578 107.428 151.192C106.495 150.806 105.647 150.24 104.933 149.525L89.7083 134.3C88.2682 132.857 87.4594 130.902 87.4594 128.863C87.4594 126.824 88.2682 124.869 89.7083 123.426L94.059 119.077C94.349 118.796 94.7375 118.641 95.1407 118.645C95.544 118.648 95.9297 118.81 96.2148 119.095C96.5 119.38 96.6617 119.766 96.6652 120.169C96.6687 120.573 96.5137 120.961 96.2336 121.251L91.8829 125.6C91.4544 126.029 91.1145 126.537 90.8826 127.097C90.6506 127.657 90.5313 128.257 90.5313 128.863C90.5313 129.469 90.6506 130.069 90.8826 130.629C91.1145 131.188 91.4544 131.697 91.8829 132.126L107.108 147.351C107.536 147.779 108.045 148.119 108.605 148.351C109.165 148.583 109.765 148.702 110.371 148.702C110.977 148.702 111.577 148.583 112.136 148.351C112.696 148.119 113.205 147.779 113.633 147.351L150.606 110.377C151.034 109.948 151.374 109.44 151.606 108.88C151.838 108.32 151.957 107.72 151.957 107.114C151.957 106.508 151.838 105.908 151.606 105.348C151.374 104.789 151.034 104.28 150.606 103.851L135.38 88.6264C134.952 88.1979 134.443 87.858 133.884 87.6261C133.324 87.3942 132.724 87.2748 132.118 87.2748C131.512 87.2748 130.912 87.3942 130.352 87.6261C129.792 87.858 129.284 88.1979 128.855 88.6264L124.508 92.9802C124.366 93.127 124.196 93.2442 124.008 93.3248C123.821 93.4054 123.619 93.4478 123.415 93.4496C123.211 93.4514 123.008 93.4125 122.819 93.3351C122.63 93.2578 122.458 93.1436 122.314 92.9992C122.17 92.8548 122.055 92.6831 121.978 92.4941C121.901 92.3051 121.862 92.1026 121.864 91.8984C121.865 91.6942 121.908 91.4924 121.988 91.3048C122.069 91.1171 122.186 90.9474 122.333 90.8056L126.684 86.4549C128.127 85.0155 130.082 84.2072 132.121 84.2072C134.159 84.2072 136.115 85.0155 137.558 86.4549L152.783 101.68C154.225 103.122 155.035 105.078 155.035 107.117C155.035 109.157 154.225 111.112 152.783 112.554L115.808 149.524C115.094 150.238 114.247 150.805 113.314 151.191C112.381 151.577 111.381 151.775 110.371 151.774Z" fill="#26404E"/>
<path d="M162.676 167.482C162.268 167.481 161.877 167.319 161.589 167.031L144.082 149.524C143.793 149.235 143.631 148.844 143.631 148.436C143.631 148.029 143.793 147.637 144.082 147.349L150.607 140.824C150.895 140.535 151.286 140.374 151.694 140.374C152.102 140.374 152.493 140.535 152.782 140.824L168.751 156.793C169.031 157.083 169.186 157.472 169.183 157.875C169.179 158.278 169.017 158.664 168.732 158.949C168.447 159.234 168.061 159.396 167.658 159.399C167.255 159.403 166.866 159.248 166.576 158.968L151.694 144.086L147.344 148.436L163.764 164.856C163.979 165.071 164.125 165.345 164.184 165.644C164.244 165.942 164.213 166.251 164.097 166.532C163.98 166.813 163.783 167.053 163.531 167.222C163.278 167.391 162.98 167.481 162.676 167.482Z" fill="#26404E"/>
<path d="M107.801 133.304C107.269 133.31 106.74 133.209 106.248 133.006C105.755 132.804 105.308 132.504 104.933 132.126L86.4464 113.639C85.8751 113.067 85.422 112.389 85.1128 111.643C84.8037 110.897 84.6445 110.097 84.6445 109.289C84.6445 108.481 84.8037 107.681 85.1128 106.935C85.422 106.188 85.8751 105.51 86.4464 104.939C87.619 103.821 89.1766 103.198 90.7963 103.198C92.416 103.198 93.9737 103.821 95.1462 104.939L113.633 123.43C114.157 123.963 114.527 124.626 114.706 125.351C114.884 126.076 114.864 126.836 114.647 127.55C114.242 128.869 113.52 130.068 112.545 131.043C111.569 132.019 110.37 132.74 109.052 133.145C108.644 133.252 108.223 133.306 107.801 133.308V133.304ZM90.7971 106.206C90.1869 106.204 89.5897 106.383 89.0817 106.721C88.5736 107.059 88.1776 107.54 87.944 108.104C87.7103 108.668 87.6497 109.288 87.7697 109.887C87.8897 110.485 88.1849 111.034 88.6179 111.464L107.108 129.949C107.219 130.06 107.512 130.355 108.291 130.159C109.076 129.891 109.789 129.447 110.375 128.86C110.962 128.274 111.406 127.56 111.674 126.775C111.872 126.006 111.577 125.699 111.465 125.593L92.9716 107.113C92.6866 106.827 92.3474 106.599 91.9739 106.445C91.6004 106.29 91.1998 106.211 90.7955 106.212L90.7971 106.206Z" fill="#26404E"/>
<path d="M115.808 84.2774L134.293 102.764C137.194 105.665 130.669 112.188 127.768 109.29L109.284 90.8026C108.856 90.3742 108.516 89.8656 108.284 89.3057C108.052 88.7459 107.933 88.1459 107.933 87.54C107.933 86.9341 108.052 86.334 108.284 85.7742C108.516 85.2144 108.856 84.7058 109.284 84.2774C109.713 83.8489 110.221 83.509 110.781 83.277C111.341 83.0451 111.941 82.9258 112.547 82.9258C113.153 82.9258 113.753 83.0451 114.313 83.277C114.872 83.509 115.381 83.8489 115.809 84.2774H115.808Z" fill="#EEF6FF"/>
<path opacity="0.2" d="M109.284 84.2772C108.713 84.8547 108.306 85.5741 108.106 86.361C108.885 86.1502 109.705 86.148 110.485 86.3548C111.264 86.5616 111.976 86.9701 112.547 87.5391L133.207 108.205C133.207 108.205 136.129 104.603 134.295 102.767L115.808 84.2772C114.943 83.4123 113.769 82.9264 112.546 82.9264C111.322 82.9264 110.149 83.4123 109.284 84.2772Z" fill="#2C4B75"/>
<path d="M129.57 111.562C129.034 111.568 128.503 111.466 128.007 111.263C127.511 111.059 127.061 110.758 126.684 110.377L108.195 91.8882C107.042 90.7346 106.394 89.1698 106.394 87.5383C106.394 85.9068 107.042 84.3421 108.195 83.1884C109.349 82.0347 110.914 81.3866 112.545 81.3866C114.177 81.3866 115.742 82.0347 116.895 83.1884L135.382 101.677C137.303 103.598 136.855 106.729 134.293 109.289C133.078 110.637 131.382 111.453 129.57 111.562ZM112.546 84.4648C111.938 84.465 111.344 84.6453 110.838 84.9831C110.332 85.3209 109.938 85.801 109.705 86.3626C109.473 86.9243 109.411 87.5424 109.53 88.1389C109.648 88.7353 109.94 89.2833 110.37 89.7136L128.858 108.205C129.54 108.883 131.051 108.187 132.12 107.118C133.189 106.049 133.889 104.536 133.209 103.855L114.721 85.3645C114.435 85.0787 114.096 84.8522 113.723 84.6978C113.35 84.5434 112.95 84.4642 112.546 84.4648Z" fill="#26404E"/>
<path d="M132.12 155.38C129.494 155.387 126.892 154.873 124.465 153.868C122.039 152.863 119.836 151.386 117.984 149.524L115.808 147.348C115.52 147.059 115.358 146.668 115.358 146.26C115.358 145.853 115.52 145.461 115.808 145.173L148.433 112.551C148.721 112.263 149.112 112.101 149.52 112.101C149.928 112.101 150.319 112.263 150.607 112.551L152.782 114.726C154.638 116.582 156.111 118.786 157.116 121.212C158.12 123.638 158.638 126.237 158.638 128.863C158.638 131.488 158.12 134.088 157.116 136.514C156.111 138.94 154.638 141.143 152.782 143L146.256 149.524C144.404 151.386 142.202 152.863 139.775 153.868C137.348 154.873 134.747 155.387 132.12 155.38ZM119.068 146.262L120.157 147.351C123.329 150.523 127.632 152.305 132.119 152.305C136.605 152.305 140.908 150.523 144.08 147.351L150.606 140.825C152.177 139.255 153.423 137.39 154.273 135.337C155.123 133.285 155.561 131.085 155.561 128.863C155.561 126.641 155.123 124.441 154.273 122.389C153.423 120.336 152.177 118.471 150.606 116.9L149.518 115.813L119.068 146.262Z" fill="#26404E"/>
<path d="M45.8493 36.792L39.324 43.3172C37.6103 45.0309 36.2508 47.0654 35.3233 49.3044C34.3958 51.5435 33.9185 53.9434 33.9185 56.367C33.9185 58.7905 34.3958 61.1904 35.3233 63.4295C36.2508 65.6685 37.6103 67.703 39.324 69.4167L57.811 87.9052L90.4342 55.2789L71.9472 36.792C68.4864 33.3313 63.7925 31.3871 58.8983 31.3871C54.004 31.3871 49.3102 33.3313 45.8493 36.792Z" fill="#CED8EE"/>
<path opacity="0.2" d="M67.598 56.3662L46.9411 35.7047L38.2367 44.4045L58.8982 65.066C61.7987 67.9649 70.497 59.2666 67.598 56.3662Z" fill="#2C4B75"/>
<path d="M90.4342 55.2789L80.647 45.4917C77.763 42.6077 73.8513 40.9875 69.7726 40.9875C65.694 40.9875 61.7823 42.6077 58.8982 45.4917L48.0177 56.3661C45.1337 59.2502 43.5134 63.1619 43.5134 67.2405C43.5134 71.3192 45.1337 75.2309 48.0177 78.115L57.811 87.9051L90.4342 55.2789Z" fill="#939FC6"/>
<path d="M57.8109 89.443C57.4031 89.4429 57.012 89.2809 56.7236 88.9924L38.2367 70.5024C34.4929 66.7501 32.3904 61.6659 32.3904 56.3654C32.3904 51.0648 34.4929 45.9807 38.2367 42.2283L44.7619 35.7031C48.5143 31.9593 53.5984 29.8568 58.899 29.8568C64.1995 29.8568 69.2837 31.9593 73.036 35.7031L91.5214 54.1916C91.8097 54.48 91.9717 54.8711 91.9717 55.2789C91.9717 55.6867 91.8097 56.0778 91.5214 56.3661L58.8982 88.9894C58.6099 89.2778 58.2188 89.4399 57.8109 89.44V89.443ZM46.9411 37.8792L40.4159 44.4045C37.248 47.5796 35.4688 51.8817 35.4688 56.3669C35.4688 60.8521 37.248 65.1542 40.4159 68.3294L57.8109 85.7275L88.2611 55.2773L70.8599 37.8792C67.6848 34.7113 63.3827 32.9322 58.8974 32.9322C54.4122 32.9322 50.1101 34.7113 46.935 37.8792H46.9411Z" fill="#26404E"/>
<path d="M50.1987 41.1411L32.6391 23.5861L26.1184 30.1098L43.6734 47.6663C46.5738 50.5668 53.093 44.0415 50.1987 41.1411Z" fill="#CED8EE"/>
<path d="M32.6431 23.5851L26.1184 30.1098L29.3808 33.3722L35.9055 26.8475L32.6431 23.5851Z" fill="#EEF6FF"/>
<path d="M45.4741 49.9409C44.9378 49.9471 44.4057 49.8453 43.9095 49.6416C43.4134 49.4379 42.9632 49.1364 42.586 48.7552L25.0294 31.1971C24.8826 31.0552 24.7654 30.8855 24.6848 30.6979C24.6042 30.5103 24.5618 30.3085 24.56 30.1043C24.5582 29.9001 24.5971 29.6976 24.6745 29.5086C24.7518 29.3196 24.866 29.1479 25.0104 29.0035C25.1548 28.8591 25.3265 28.7449 25.5155 28.6676C25.7045 28.5902 25.907 28.5513 26.1112 28.5531C26.3154 28.5549 26.5172 28.5973 26.7048 28.6779C26.8924 28.7585 27.0621 28.8757 27.204 29.0225L44.7605 46.5791C44.8728 46.6898 45.1681 46.9851 45.9432 46.7882C46.7283 46.5205 47.4415 46.0763 48.0281 45.4898C48.6146 44.9032 49.0588 44.19 49.3265 43.4049C49.5234 42.6359 49.2281 42.3283 49.1174 42.2222L28.6665 21.776C28.3864 21.486 28.2314 21.0975 28.2349 20.6943C28.2384 20.291 28.4001 19.9053 28.6853 19.6202C28.9704 19.335 29.3561 19.1733 29.7594 19.1698C30.1626 19.1663 30.5511 19.3213 30.8411 19.6014L51.2858 40.0538C53.2066 41.9746 52.7591 45.1058 50.1985 47.6663C48.983 49.0149 47.2863 49.8317 45.4741 49.9409Z" fill="#26404E"/>
<path d="M143.213 70.0656C156.803 70.0656 167.819 59.049 167.819 45.4594C167.819 31.8698 156.803 20.8532 143.213 20.8532C129.623 20.8532 118.607 31.8698 118.607 45.4594C118.607 59.049 129.623 70.0656 143.213 70.0656Z" fill="#FF9797"/>
<path opacity="0.2" d="M143.213 65.452C137.088 65.4498 131.184 63.1633 126.655 59.0394C122.126 54.9155 119.298 49.2508 118.724 43.1526C118.653 43.9092 118.607 44.6766 118.607 45.4594C118.607 51.9854 121.199 58.2441 125.814 62.8586C130.428 67.4732 136.687 70.0656 143.213 70.0656C149.739 70.0656 155.998 67.4732 160.612 62.8586C165.227 58.2441 167.819 51.9854 167.819 45.4594C167.819 44.6812 167.773 43.9123 167.702 43.1526C167.128 49.2508 164.3 54.9155 159.771 59.0394C155.242 63.1633 149.338 65.4498 143.213 65.452Z" fill="#750000"/>
<path opacity="0.5" d="M143.213 25.4669C149.338 25.469 155.242 27.7555 159.771 31.8794C164.3 36.0033 167.128 41.6681 167.702 47.7662C167.773 47.0096 167.819 46.2422 167.819 45.4594C167.819 38.9334 165.227 32.6748 160.612 28.0602C155.998 23.4456 149.739 20.8532 143.213 20.8532C136.687 20.8532 130.428 23.4456 125.814 28.0602C121.199 32.6748 118.607 38.9334 118.607 45.4594C118.607 46.2376 118.653 47.0065 118.724 47.7662C119.298 41.6681 122.126 36.0033 126.655 31.8794C131.184 27.7555 137.088 25.469 143.213 25.4669Z" fill="white"/>
<path d="M135.01 55.1989C134.706 55.1988 134.409 55.1086 134.156 54.9396C133.903 54.7706 133.706 54.5305 133.589 54.2495C133.473 53.9685 133.443 53.6594 133.502 53.3611C133.561 53.0628 133.708 52.7888 133.923 52.5737L150.327 36.1691C150.469 36.0222 150.639 35.905 150.827 35.8244C151.014 35.7438 151.216 35.7014 151.42 35.6996C151.624 35.6979 151.827 35.7368 152.016 35.8141C152.205 35.8914 152.377 36.0056 152.521 36.15C152.665 36.2944 152.78 36.4661 152.857 36.6551C152.934 36.8441 152.973 37.0466 152.971 37.2508C152.97 37.455 152.927 37.6568 152.847 37.8445C152.766 38.0321 152.649 38.2018 152.502 38.3437L136.099 54.7498C135.956 54.8926 135.786 55.0057 135.599 55.0827C135.412 55.1598 135.212 55.1993 135.01 55.1989Z" fill="white"/>
<path d="M151.416 55.1989C151.008 55.1988 150.617 55.0367 150.329 54.7483L133.924 38.3452C133.644 38.0552 133.489 37.6667 133.492 37.2634C133.496 36.8602 133.658 36.4745 133.943 36.1894C134.228 35.9042 134.614 35.7425 135.017 35.739C135.42 35.7355 135.809 35.8905 136.099 36.1706L152.503 52.5753C152.718 52.7903 152.865 53.0643 152.924 53.3626C152.983 53.6609 152.953 53.9701 152.836 54.251C152.72 54.532 152.523 54.7722 152.27 54.9412C152.017 55.1101 151.72 55.2004 151.416 55.2004V55.1989Z" fill="white"/>
<path d="M143.213 71.6035C138.042 71.6035 132.987 70.0702 128.688 67.1974C124.389 64.3247 121.038 60.2416 119.059 55.4643C117.08 50.6871 116.562 45.4304 117.571 40.359C118.58 35.2875 121.07 30.6291 124.726 26.9728C128.383 23.3165 133.041 20.8265 138.112 19.8177C143.184 18.8089 148.441 19.3267 153.218 21.3054C157.995 23.2842 162.078 26.6352 164.951 30.9346C167.824 35.2339 169.357 40.2886 169.357 45.4594C169.357 52.3933 166.603 59.0431 161.7 63.9461C156.797 68.8491 150.147 71.6035 143.213 71.6035ZM143.213 22.3911C138.65 22.3911 134.19 23.7441 130.397 26.2788C126.603 28.8136 123.647 32.4164 121.901 36.6316C120.155 40.8468 119.698 45.485 120.588 49.9598C121.478 54.4347 123.675 58.545 126.901 61.7712C130.127 64.9974 134.238 67.1944 138.713 68.0845C143.187 68.9746 147.826 68.5178 152.041 66.7718C156.256 65.0258 159.859 62.0691 162.394 58.2755C164.928 54.4819 166.281 50.0219 166.281 45.4594C166.281 39.3413 163.851 33.4738 159.525 29.1477C155.199 24.8215 149.331 22.3911 143.213 22.3911Z" fill="#26404E"/>
</svg>
