<svg xmlns="http://www.w3.org/2000/svg" width="124.847" height="20.996" viewBox="0 0 124.847 20.996">
  <g id="Group_2114" data-name="Group 2114" transform="translate(-0.194 -66.658)">
    <g id="Group_15" data-name="Group 15" transform="translate(0.194 66.658)">
      <path id="Path_17" data-name="Path 17" d="M21.19,71.369V82.943a4.714,4.714,0,0,1-4.711,4.71H4.905A4.714,4.714,0,0,1,.194,82.943V71.369a4.714,4.714,0,0,1,4.711-4.711H16.479a4.714,4.714,0,0,1,4.711,4.711Z" transform="translate(-0.194 -66.658)" fill="#32baec"/>
    </g>
    <g id="DronaHQ" transform="translate(28.197 69.755)">
      <g id="Group_83" data-name="Group 83">
        <path id="Path_110" data-name="Path 110" d="M1001.42,186.09h6.448a9.061,9.061,0,0,1,4.086.882,6.6,6.6,0,0,1,2.758,2.484,7.569,7.569,0,0,1,0,7.462,6.605,6.605,0,0,1-2.758,2.484,9.064,9.064,0,0,1-4.086.882h-6.448Zm6.286,11.5a4.769,4.769,0,0,0,3.4-1.186,4.709,4.709,0,0,0,0-6.428,4.768,4.768,0,0,0-3.4-1.186h-3v8.8Z" transform="translate(-1001.42 -185.847)" fill="#26404e"/>
        <path id="Path_111" data-name="Path 111" d="M1596.839,298.146a5.685,5.685,0,0,1,2.22-.406v2.92q-.528-.04-.71-.041a2.9,2.9,0,0,0-2.129.76,3.072,3.072,0,0,0-.771,2.281v5.151h-3.163V297.9h3.021v1.44A3.515,3.515,0,0,1,1596.839,298.146Z" transform="translate(-1575.761 -294.374)" fill="#26404e"/>
        <path id="Path_112" data-name="Path 112" d="M1872.153,308.254a5.348,5.348,0,0,1-2.139-2,5.841,5.841,0,0,1,0-5.8,5.35,5.35,0,0,1,2.139-2,6.546,6.546,0,0,1,3.092-.72,6.478,6.478,0,0,1,3.082.72,5.373,5.373,0,0,1,2.129,2,5.841,5.841,0,0,1,0,5.8,5.371,5.371,0,0,1-2.129,2,6.98,6.98,0,0,1-6.175,0Zm5.09-2.7a3.491,3.491,0,0,0,0-4.4,2.634,2.634,0,0,0-2-.821,2.668,2.668,0,0,0-2.007.821,3.456,3.456,0,0,0,0,4.4,2.667,2.667,0,0,0,2.007.821A2.635,2.635,0,0,0,1877.242,305.557Z" transform="translate(-1844.971 -294.374)" fill="#26404e"/>
        <path id="Path_113" data-name="Path 113" d="M2383.023,298.957a4.825,4.825,0,0,1,1.247,3.609v6.245h-3.163v-5.759a2.845,2.845,0,0,0-.568-1.936,2.081,2.081,0,0,0-1.643-.639,2.517,2.517,0,0,0-1.906.74,3.064,3.064,0,0,0-.71,2.2v5.394h-3.163V297.9h3.021v1.277a4.2,4.2,0,0,1,1.561-1.065,5.443,5.443,0,0,1,2.048-.375A4.49,4.49,0,0,1,2383.023,298.957Z" transform="translate(-2334.753 -294.374)" fill="#26404e"/>
        <path id="Path_114" data-name="Path 114" d="M2857.713,298.947a4.619,4.619,0,0,1,1.358,3.64v6.225h-2.96v-1.359a3.526,3.526,0,0,1-3.325,1.521,5.16,5.16,0,0,1-2.18-.426,3.245,3.245,0,0,1-1.409-1.176,3.065,3.065,0,0,1-.487-1.7,2.843,2.843,0,0,1,1.146-2.393,5.839,5.839,0,0,1,3.539-.872h2.514a2.016,2.016,0,0,0-.629-1.592,2.769,2.769,0,0,0-1.886-.558,5.5,5.5,0,0,0-1.713.273,4.533,4.533,0,0,0-1.43.74l-1.135-2.21a6.857,6.857,0,0,1,2.139-.973,9.585,9.585,0,0,1,2.565-.345A5.678,5.678,0,0,1,2857.713,298.947Zm-2.7,7.523a2.055,2.055,0,0,0,.892-1.105V304.25h-2.17q-1.947,0-1.947,1.277a1.138,1.138,0,0,0,.477.963,2.147,2.147,0,0,0,1.308.355A2.757,2.757,0,0,0,2855.016,306.47Z" transform="translate(-2797.043 -294.374)" fill="#26404e"/>
        <path id="Path_115" data-name="Path 115" d="M3342.4,186.09v14.194h-3.285v-5.82h-6.448v5.82h-3.285V186.09h3.285v5.6h6.448v-5.6Z" transform="translate(-3264.27 -185.847)" fill="#26404e"/>
        <path id="Path_116" data-name="Path 116" d="M3899.522,193.348a4.542,4.542,0,0,1-1.673,1.3,5.173,5.173,0,0,1-2.159.446,5.994,5.994,0,0,1-2.859-.679,12.328,12.328,0,0,1-2.92-2.4,7.98,7.98,0,0,1-3.437-1.237,6.956,6.956,0,0,1-2.352-2.565,7.245,7.245,0,0,1-.842-3.478,7.17,7.17,0,0,1,1-3.761,7.068,7.068,0,0,1,2.778-2.626,8.785,8.785,0,0,1,7.959,0,7.1,7.1,0,0,1,3.792,6.387,7.067,7.067,0,0,1-1.389,4.339,7.182,7.182,0,0,1-3.68,2.6,3.611,3.611,0,0,0,.983.76,2.3,2.3,0,0,0,1.024.233,3.086,3.086,0,0,0,2.312-1.054Zm-12.339-6.266a4.146,4.146,0,0,0,1.592,1.612,4.752,4.752,0,0,0,4.542,0,4.15,4.15,0,0,0,1.592-1.612,5.076,5.076,0,0,0,0-4.7,4.151,4.151,0,0,0-1.592-1.612,4.752,4.752,0,0,0-4.542,0,4.146,4.146,0,0,0-1.592,1.612,5.076,5.076,0,0,0,0,4.7Z" transform="translate(-3802.678 -177.39)" fill="#26404e"/>
      </g>
    </g>
    <g id="Group_84" data-name="Group 84" transform="translate(6.564 70.867)">
      <path id="Path_117" data-name="Path 117" d="M387.955,217.139v3.847h-3.847a3.847,3.847,0,0,1,3.847-3.847Z" transform="translate(-379.74 -217.139)" fill="#fff"/>
      <path id="Path_118" data-name="Path 118" d="M384.108,534.718v-3.847h3.847a3.847,3.847,0,0,1-3.847,3.847Z" transform="translate(-379.74 -522.096)" fill="#fff"/>
      <path id="Path_119" data-name="Path 119" d="M227.939,530.871h3.847v3.847a3.847,3.847,0,0,1-3.847-3.847Z" transform="translate(-227.939 -522.096)" fill="#fff"/>
      <path id="Path_120" data-name="Path 120" d="M231.786,373.222v3.847h-3.847a3.847,3.847,0,0,1,3.847-3.847Z" transform="translate(-227.939 -368.857)" fill="#fff"/>
      <rect id="Rectangle_15" data-name="Rectangle 15" width="3.847" height="3.847" transform="translate(8.215 8.213) rotate(180)" fill="#fff"/>
    </g>
  </g>
</svg>
