<svg width="125" height="21" viewBox="0 0 125 21" fill="none" xmlns="http://www.w3.org/2000/svg">
<path d="M28.0029 3.34001H34.4509C35.8631 3.31153 37.2623 3.61357 38.5369 4.22201C39.675 4.76913 40.6321 5.63122 41.2949 6.706C41.9395 7.84383 42.2784 9.12927 42.2784 10.437C42.2784 11.7447 41.9395 13.0302 41.2949 14.168C40.6319 15.2426 39.6748 16.1046 38.5369 16.652C37.2622 17.2603 35.863 17.5624 34.4509 17.534H28.0029V3.34001ZM34.2889 14.84C35.5337 14.9042 36.7542 14.4785 37.689 13.654C38.5034 12.7819 38.9563 11.6332 38.9563 10.44C38.9563 9.2468 38.5034 8.09808 37.689 7.22601C36.7542 6.40146 35.5337 5.97573 34.2889 6.04H31.2889V14.84H34.2889Z" fill="white"/>
<path d="M49.0809 6.86903C49.7864 6.5867 50.5412 6.44864 51.3009 6.46302V9.38304C50.9489 9.35637 50.7123 9.34269 50.5909 9.34202C50.2033 9.31971 49.8151 9.3755 49.4493 9.50605C49.0836 9.63661 48.7478 9.83927 48.4619 10.102C48.1864 10.4107 47.9761 10.7719 47.8436 11.1639C47.7111 11.5558 47.6592 11.9705 47.6909 12.383V17.534H44.528V6.62303H47.549V8.06303C47.9373 7.52904 48.4683 7.11524 49.0809 6.86903V6.86903Z" fill="white"/>
<path d="M55.1849 16.977C54.2997 16.5223 53.5591 15.8297 53.046 14.977C52.5409 14.094 52.2753 13.0943 52.2753 12.077C52.2753 11.0597 52.5409 10.0601 53.046 9.17702C53.5591 8.3244 54.2998 7.63179 55.1849 7.17702C56.1409 6.68694 57.2028 6.43967 58.277 6.45702C59.348 6.43851 60.407 6.68589 61.359 7.17702C62.2398 7.63429 62.9767 8.32654 63.488 9.17702C63.9931 10.0601 64.2588 11.0597 64.2588 12.077C64.2588 13.0943 63.9931 14.094 63.488 14.977C62.9768 15.8276 62.2398 16.5198 61.359 16.977C60.3987 17.4507 59.3423 17.697 58.2715 17.697C57.2007 17.697 56.1443 17.4507 55.184 16.977H55.1849ZM60.275 14.277C60.7799 13.6549 61.0554 12.8782 61.0554 12.077C61.0554 11.2759 60.7799 10.4991 60.275 9.87701C60.0187 9.60646 59.7078 9.39338 59.363 9.25185C59.0183 9.11033 58.6475 9.04359 58.275 9.05602C57.9017 9.04475 57.5301 9.11198 57.1843 9.25341C56.8386 9.39484 56.5264 9.60729 56.2679 9.87701C55.7568 10.4962 55.4773 11.2741 55.4773 12.077C55.4773 12.8799 55.7568 13.6578 56.2679 14.277C56.5263 14.5468 56.8386 14.7593 57.1843 14.9007C57.5301 15.0421 57.9016 15.1094 58.275 15.098C58.6471 15.1106 59.0176 15.0442 59.3622 14.9033C59.7067 14.7623 60.0174 14.5498 60.2739 14.28L60.275 14.277Z" fill="white"/>
<path d="M76.2729 7.68003C76.7154 8.1651 77.0544 8.73538 77.2688 9.35594C77.4832 9.97649 77.5686 10.6343 77.52 11.289V17.534H74.3569V11.775C74.4105 11.082 74.2085 10.3933 73.7891 9.83903C73.5787 9.61876 73.3225 9.44737 73.0386 9.33695C72.7547 9.22654 72.4499 9.17979 72.146 9.20002C71.7942 9.18315 71.4428 9.24031 71.1145 9.36778C70.7862 9.49525 70.4882 9.69021 70.24 9.94004C69.7251 10.5525 69.4704 11.3421 69.53 12.14V17.534H66.3669V6.62303H69.3879V7.90003C69.8206 7.43107 70.3545 7.06685 70.949 6.83503C71.6012 6.57941 72.2966 6.45208 72.9971 6.46003C73.597 6.434 74.1958 6.52855 74.7585 6.73811C75.3212 6.94766 75.8362 7.26796 76.2729 7.68003V7.68003Z" fill="white"/>
<path d="M88.6728 7.67002C89.1499 8.14171 89.5186 8.71169 89.7531 9.3403C89.9876 9.96892 90.0825 10.6411 90.031 11.31V17.535H87.071V16.176C86.7088 16.7093 86.2073 17.133 85.621 17.4012C85.0348 17.6694 84.3861 17.7717 83.7458 17.697C82.9968 17.715 82.253 17.5696 81.5659 17.271C80.9928 17.0228 80.5036 16.6144 80.1569 16.095C79.8311 15.5885 79.6617 14.9972 79.6699 14.395C79.6519 13.933 79.747 13.4736 79.9467 13.0566C80.1464 12.6397 80.4447 12.2776 80.8159 12.002C81.8723 11.3412 83.1124 11.0356 84.3549 11.13H86.8688C86.8872 10.8348 86.8406 10.5391 86.7319 10.2639C86.6232 9.98882 86.4552 9.74099 86.2399 9.53803C85.7007 9.1275 85.0297 8.92895 84.354 8.98001C83.7721 8.97983 83.1938 9.07199 82.6408 9.25302C82.1238 9.41238 81.6396 9.66299 81.2109 9.99301L80.0759 7.78302C80.7276 7.33802 81.4511 7.00887 82.2148 6.81003C83.0503 6.5796 83.9133 6.46354 84.78 6.46503C86.182 6.37113 87.5689 6.80046 88.6728 7.67002V7.67002ZM85.9728 15.193C86.392 14.9424 86.7084 14.5506 86.8649 14.088V12.973H84.695C83.397 12.973 82.748 13.3987 82.748 14.25C82.742 14.4374 82.7825 14.6234 82.8657 14.7914C82.9489 14.9594 83.0721 15.1042 83.2248 15.213C83.611 15.4695 84.07 15.594 84.5329 15.568C85.0392 15.5779 85.5386 15.4482 85.976 15.193H85.9728Z" fill="white"/>
<path d="M106.133 3.34003V17.534H102.848V11.714H96.3999V17.534H93.115V3.34003H96.3999V8.94003H102.848V3.34003H106.133Z" fill="white"/>
<path d="M124.847 19.055C124.4 19.6142 123.826 20.0596 123.174 20.355C122.495 20.6571 121.758 20.8092 121.015 20.801C120.02 20.8154 119.038 20.5821 118.156 20.122C117.065 19.4769 116.08 18.6674 115.236 17.722C114.01 17.581 112.834 17.1575 111.799 16.485C110.81 15.8431 110.001 14.9605 109.447 13.92C108.88 12.8493 108.59 11.6535 108.605 10.442C108.585 9.12013 108.931 7.81852 109.605 6.68102C110.272 5.56713 111.234 4.65857 112.383 4.05502C113.616 3.42853 114.98 3.10199 116.363 3.10199C117.746 3.10199 119.109 3.42853 120.342 4.05502C121.502 4.66573 122.471 5.58572 123.14 6.71307C123.809 7.84042 124.153 9.13109 124.134 10.442C124.163 12.002 123.674 13.5277 122.745 14.781C121.829 16.02 120.539 16.9315 119.065 17.381C119.346 17.6892 119.679 17.9464 120.048 18.141C120.367 18.2966 120.717 18.3764 121.072 18.374C121.51 18.3725 121.943 18.2777 122.342 18.096C122.74 17.9143 123.096 17.6498 123.384 17.32L124.847 19.055ZM112.508 12.789C112.879 13.4637 113.43 14.0219 114.1 14.401C114.797 14.7802 115.578 14.9788 116.371 14.9788C117.164 14.9788 117.945 14.7802 118.642 14.401C119.312 14.0217 119.863 13.4636 120.234 12.789C120.613 12.0636 120.811 11.2574 120.811 10.439C120.811 9.62064 120.613 8.81441 120.234 8.08902C119.863 7.41446 119.312 6.85634 118.642 6.47702C117.945 6.09787 117.164 5.89923 116.371 5.89923C115.578 5.89923 114.797 6.09787 114.1 6.47702C113.43 6.85613 112.879 7.4143 112.508 8.08902C112.129 8.81441 111.931 9.62064 111.931 10.439C111.931 11.2574 112.129 12.0636 112.508 12.789V12.789Z" fill="white"/>
<path fill-rule="evenodd" clip-rule="evenodd" d="M20.996 16.285V4.71101C20.9952 3.46182 20.4986 2.26401 19.6153 1.3807C18.732 0.497387 17.5342 0.000794735 16.285 0H4.711C3.46181 0.000794735 2.26401 0.497387 1.3807 1.3807C0.497386 2.26401 0.000794735 3.46182 0 4.71101V16.285C0.00105958 17.534 0.497768 18.7316 1.38105 19.6147C2.26433 20.4978 3.46198 20.9942 4.711 20.995H16.285C17.534 20.9942 18.7317 20.4978 19.6149 19.6147C20.4982 18.7316 20.9949 17.534 20.996 16.285ZM14.585 4.20898V8.05597H10.738C10.738 7.03568 11.1433 6.05719 11.8648 5.33574C12.5862 4.61429 13.5647 4.20898 14.585 4.20898ZM10.738 16.831V12.9839H14.585C14.585 14.0042 14.1797 14.9828 13.4582 15.7042C12.7368 16.4257 11.7583 16.831 10.738 16.831ZM10.217 12.9839H6.37C6.37 14.0042 6.77531 14.9828 7.49677 15.7042C8.21822 16.4257 9.19671 16.831 10.217 16.831V12.9839ZM10.217 8.57396V12.421H6.37C6.37 11.4007 6.77531 10.4222 7.49677 9.70073C8.21822 8.97928 9.19671 8.57396 10.217 8.57396ZM14.585 12.422H10.738V8.57498H14.585V12.422Z" fill="white"/>
</svg>
