<?xml version="1.0" ?><svg height="60" id="Holidays" viewBox="0 0 60 60" width="60" xmlns="http://www.w3.org/2000/svg"><title/><path d="M29.999,60a.99974.99974,0,0,1-1-1V1a1,1,0,0,1,2,0V59A.99974.99974,0,0,1,29.999,60Z" style="fill:#6d6daa"/><path d="M30.042,15.09619a.99676.99676,0,0,1-.707-.293l-7.48437-7.4834a.99989.99989,0,0,1,1.41406-1.41406l7.48438,7.4834a1,1,0,0,1-.707,1.707Z" style="fill:#6d6daa"/><path d="M30.042,15.09619a1,1,0,0,1-.707-1.707l7.4834-7.4834a.99989.99989,0,0,1,1.41406,1.41406l-7.4834,7.4834A.99676.99676,0,0,1,30.042,15.09619Z" style="fill:#6d6daa"/><path d="M22.55762,54.38721a1,1,0,0,1-.707-1.707l7.48438-7.4834A.99989.99989,0,0,1,30.749,46.61084l-7.48437,7.4834A.99676.99676,0,0,1,22.55762,54.38721Z" style="fill:#6d6daa"/><path d="M37.52539,54.38721a.99676.99676,0,0,1-.707-.293l-7.4834-7.4834A.99989.99989,0,0,1,30.749,45.19678l7.4834,7.4834a1,1,0,0,1-.707,1.707Z" style="fill:#6d6daa"/><path d="M4.88477,45.52686a1,1,0,0,1-.501-1.86621L54.61426,14.66016a1.00016,1.00016,0,1,1,1,1.73242L5.38379,45.39307A.99445.99445,0,0,1,4.88477,45.52686Z" style="fill:#6d6daa"/><path d="M13.48828,49.20166a1.00193,1.00193,0,0,1-.9668-1.25928l2.73926-10.22314a.99989.99989,0,1,1,1.93164.51758L14.45313,48.46A.99975.99975,0,0,1,13.48828,49.20166Z" style="fill:#6d6daa"/><path d="M16.22754,38.97852a.99515.99515,0,0,1-.25977-.03467L5.74414,36.2041a.99989.99989,0,1,1,.51758-1.93164l10.22363,2.73975a1.00024,1.00024,0,0,1-.25781,1.96631Z" style="fill:#6d6daa"/><path d="M53.99609,25.81494a.99515.99515,0,0,1-.25977-.03467L43.51367,23.04053a.99989.99989,0,1,1,.51758-1.93164l10.22266,2.73975a1.00024,1.00024,0,0,1-.25781,1.96631Z" style="fill:#6d6daa"/><path d="M43.77344,23.0752a1.00193,1.00193,0,0,1-.9668-1.25928l2.73828-10.22314a.99989.99989,0,1,1,1.93164.51758L44.73828,22.3335A.99975.99975,0,0,1,43.77344,23.0752Z" style="fill:#6d6daa"/><path d="M55.11328,45.498a.99445.99445,0,0,1-.499-.13379L4.38379,16.36328a1.00016,1.00016,0,1,1,1-1.73242l50.23047,29.001a1,1,0,0,1-.501,1.86621Z" style="fill:#6d6daa"/><path d="M16.22559,23.04639a.99975.99975,0,0,1-.96484-.7417L12.52148,12.082a.99989.99989,0,0,1,1.93164-.51758l2.73926,10.22266a1.00193,1.00193,0,0,1-.9668,1.25928Z" style="fill:#6d6daa"/><path d="M6.002,25.78564a1.00024,1.00024,0,0,1-.25781-1.96631l10.22363-2.73926a.99989.99989,0,0,1,.51758,1.93164L6.26172,25.751A.99515.99515,0,0,1,6.002,25.78564Z" style="fill:#6d6daa"/><path d="M43.77148,38.94971a1.00024,1.00024,0,0,1-.25781-1.96631l10.22266-2.73926a.99989.99989,0,0,1,.51758,1.93164L44.03125,38.915A.99515.99515,0,0,1,43.77148,38.94971Z" style="fill:#6d6daa"/><path d="M46.50977,49.17334a.99975.99975,0,0,1-.96484-.7417L42.80664,38.208a.99989.99989,0,0,1,1.93164-.51758l2.73828,10.22363a1.00193,1.00193,0,0,1-.9668,1.25928Z" style="fill:#6d6daa"/></svg>