<svg width="40" height="40" viewBox="0 0 40 40" fill="none" xmlns="http://www.w3.org/2000/svg">
<g clip-path="url(#clip0_8828_3409)">
<path opacity="0.1" d="M20 40C31.0457 40 40 31.0457 40 20C40 8.9543 31.0457 0 20 0C8.9543 0 0 8.9543 0 20C0 31.0457 8.9543 40 20 40Z" fill="#FFB800"/>
<path d="M8 12C8 10.8954 8.89543 10 10 10H19.5726C20.4266 10 21.1864 10.5422 21.464 11.3498L25.589 23.3498C26.0353 24.6483 25.0706 26 23.6976 26H10C8.89543 26 8 25.1046 8 24V12Z" fill="#F68410"/>
<rect x="8" y="14" width="25" height="16" rx="2" fill="url(#paint0_linear_8828_3409)"/>
<path d="M12 23.5389C12 24.0051 12.1851 24.3657 12.5553 24.6207C12.9255 24.8736 13.4077 25 14.0018 25C14.6005 25 15.0793 24.8714 15.4381 24.6141C15.7968 24.3569 15.9762 24.0073 15.9762 23.5653C15.9762 23.1321 15.8311 22.8001 15.5409 22.5693C15.2507 22.3362 14.8336 22.1526 14.2898 22.0185C13.7916 21.8975 13.4717 21.7931 13.33 21.7051C13.1883 21.6172 13.1175 21.4831 13.1175 21.3028C13.1175 21.1357 13.1872 21.0015 13.3266 20.9004C13.466 20.7971 13.6808 20.7454 13.971 20.7454C14.2658 20.7454 14.4874 20.8102 14.636 20.94C14.7845 21.0675 14.8588 21.2368 14.8588 21.4479V21.5139H15.8803V21.4413C15.8803 21.0169 15.7066 20.6706 15.3592 20.4024C15.0119 20.1341 14.5491 20 13.971 20C13.3883 20 12.9278 20.1275 12.5896 20.3826C12.2514 20.6376 12.0823 20.973 12.0823 21.3885C12.0823 21.7843 12.2171 22.0943 12.4867 22.3186C12.7587 22.5407 13.1677 22.7166 13.7139 22.8463C14.2372 22.9694 14.5731 23.0827 14.7217 23.186C14.8702 23.2894 14.9445 23.4367 14.9445 23.628C14.9445 23.8171 14.8633 23.9699 14.7011 24.0864C14.5388 24.2007 14.3058 24.2579 14.0018 24.2579C13.6979 24.2579 13.4602 24.1974 13.2888 24.0765C13.1197 23.9534 13.0352 23.7709 13.0352 23.529V23.4631H12V23.5389Z" fill="white"/>
<path d="M17.1122 24.9011H18.1303V22.9518H20.1801V22.223H18.1303V20.8344H20.4783V20.0989H17.1122V24.9011Z" fill="white"/>
<path d="M21.1686 20.8344H22.7043V24.9011H23.7258V20.8344H25.258V20.0989H21.1686V20.8344Z" fill="white"/>
<path d="M26.2397 24.9011H27.2578V23.1959H28.1387C28.7374 23.1959 29.1968 23.0585 29.5167 22.7836C29.8389 22.5066 30 22.1251 30 21.6392C30 21.1533 29.8389 20.7751 29.5167 20.5046C29.1945 20.2342 28.7351 20.0989 28.1387 20.0989H26.2397V24.9011ZM27.2578 22.467V20.8278H28.0736C28.4118 20.8278 28.6472 20.9015 28.7797 21.0488C28.9122 21.1961 28.9785 21.394 28.9785 21.6425C28.9785 21.8909 28.9122 22.091 28.7797 22.2427C28.6472 22.3923 28.4118 22.467 28.0736 22.467H27.2578Z" fill="white"/>
</g>
<defs>
<linearGradient id="paint0_linear_8828_3409" x1="17.5" y1="28" x2="31" y2="14.5" gradientUnits="userSpaceOnUse">
<stop stop-color="#FFA816"/>
<stop offset="1" stop-color="#FFCC2F"/>
</linearGradient>
<clipPath id="clip0_8828_3409">
<rect width="40" height="40" fill="white"/>
</clipPath>
</defs>
</svg>
